<?xml version="1.0" encoding="UTF-8" standalone="no"?>
<!DOCTYPE svg PUBLIC "-//W3C//DTD SVG 1.1//EN" "http://www.w3.org/Graphics/SVG/1.1/DTD/svg11.dtd">
<svg version="1.1" xmlns="http://www.w3.org/2000/svg" xmlns:xlink="http://www.w3.org/1999/xlink" preserveAspectRatio="xMidYMid meet" viewBox="0 0 640 640" width="640" height="640"><defs><path d="M323.25 0C372.41 0 412.32 65.68 412.32 146.57C412.32 227.47 372.41 293.15 323.25 293.15C274.08 293.15 234.17 227.47 234.17 146.57C234.17 65.68 274.08 0 323.25 0Z" id="aEO3LvUmU"></path><path d="M632.08 188.43C656.98 231.29 621.2 299.35 552.22 340.34C483.25 381.32 407.02 379.81 382.11 336.95C357.21 294.1 392.99 226.03 461.97 185.04C530.95 144.06 607.17 145.57 632.08 188.43Z" id="a4ArvPbpX"></path><path d="M589.68 570.12C563.29 612.06 487.06 610.84 419.56 567.4C352.07 523.97 318.7 454.66 345.09 412.73C371.49 370.79 447.72 372.01 515.21 415.44C582.71 458.88 616.08 528.19 589.68 570.12Z" id="keFmtV1S0"></path><path d="M304.74 399.23C342.86 430.61 332.8 507.02 282.29 569.76C231.78 632.49 159.81 657.94 121.69 626.56C83.57 595.18 93.62 518.77 144.14 456.03C194.65 393.3 266.61 367.84 304.74 399.23Z" id="aZZr2yFEj"></path><path d="M267.52 336.08C246.49 381.01 170.7 389.39 98.38 354.79C26.07 320.19 -15.58 255.62 5.45 210.69C26.48 165.76 102.27 157.37 174.59 191.98C246.91 226.58 288.55 291.15 267.52 336.08Z" id="eY39QwDi"></path><path d="M433.28 351.88C433.28 413.28 383.97 463.14 323.25 463.14C262.52 463.14 213.21 413.28 213.21 351.88C213.21 290.48 262.52 240.63 323.25 240.63C383.97 240.63 433.28 290.48 433.28 351.88Z" id="f6AhLrC9v"></path></defs><g><g><g><g><use xlink:href="#aEO3LvUmU" opacity="1" fill="#ff0027" fill-opacity="1"></use><g><use xlink:href="#aEO3LvUmU" opacity="1" fill-opacity="0" stroke="#000000" stroke-width="1" stroke-opacity="0.99"></use></g></g><g><use xlink:href="#a4ArvPbpX" opacity="1" fill="#ff0027" fill-opacity="1"></use><g><use xlink:href="#a4ArvPbpX" opacity="1" fill-opacity="0" stroke="#000000" stroke-width="1" stroke-opacity="0.99"></use></g></g><g><use xlink:href="#keFmtV1S0" opacity="1" fill="#ff0027" fill-opacity="1"></use><g><use xlink:href="#keFmtV1S0" opacity="1" fill-opacity="0" stroke="#000000" stroke-width="1" stroke-opacity="0.99"></use></g></g><g><use xlink:href="#aZZr2yFEj" opacity="1" fill="#ff0027" fill-opacity="1"></use><g><use xlink:href="#aZZr2yFEj" opacity="1" fill-opacity="0" stroke="#000000" stroke-width="1" stroke-opacity="0.99"></use></g></g><g><use xlink:href="#eY39QwDi" opacity="1" fill="#ff0027" fill-opacity="1"></use><g><use xlink:href="#eY39QwDi" opacity="1" fill-opacity="0" stroke="#000000" stroke-width="1" stroke-opacity="0.99"></use></g></g><g><use xlink:href="#f6AhLrC9v" opacity="1" fill="#ff8d00" fill-opacity="1"></use><g><use xlink:href="#f6AhLrC9v" opacity="1" fill-opacity="0" stroke="#090909" stroke-width="1" stroke-opacity="1"></use></g></g></g></g></g></svg>