<svg width="23" height="22" viewBox="0 0 23 22" fill="none" xmlns="http://www.w3.org/2000/svg">
<g filter="url(#filter0_ii)">
<path d="M21.1708 11.0699C21.1708 13.3497 20.3863 15.5602 18.9491 17.33C17.5119 19.0998 15.5094 20.3211 13.2781 20.7889C11.0468 21.2568 8.72239 20.9425 6.69534 19.8991C4.6683 18.8556 3.06204 17.1464 2.14631 15.0585C1.23058 12.9706 1.06115 10.6313 1.66649 8.43323C2.27182 6.23521 3.61504 4.3124 5.47058 2.98774C7.32612 1.66307 9.58095 1.01722 11.8564 1.15864C14.1319 1.30007 16.2894 2.22016 17.9666 3.76439L11.7478 10.5188C11.6213 10.4023 11.4585 10.3329 11.2869 10.3223C11.1152 10.3116 10.9452 10.3603 10.8052 10.4602C10.6652 10.5602 10.5639 10.7052 10.5183 10.871C10.4726 11.0368 10.4854 11.2133 10.5544 11.3707C10.6235 11.5282 10.7447 11.6572 10.8976 11.7359C11.0505 11.8146 11.2258 11.8383 11.3941 11.803C11.5624 11.7677 11.7135 11.6756 11.8219 11.5421C11.9303 11.4086 11.9895 11.2419 11.9895 11.0699L21.1708 11.0699Z" fill="url(#paint0_linear)"/>
</g>
<path d="M21.1708 11.0699C21.1708 13.3497 20.3863 15.5602 18.9491 17.33C17.5119 19.0998 15.5094 20.3211 13.2781 20.7889C11.0468 21.2568 8.72239 20.9425 6.69534 19.8991C4.6683 18.8556 3.06204 17.1464 2.14631 15.0585C1.23058 12.9706 1.06115 10.6313 1.66649 8.43323C2.27182 6.23521 3.61504 4.3124 5.47058 2.98774C7.32612 1.66307 9.58095 1.01722 11.8564 1.15864C14.1319 1.30007 16.2894 2.22016 17.9666 3.76439L11.7478 10.5188C11.6213 10.4023 11.4585 10.3329 11.2869 10.3223C11.1152 10.3116 10.9452 10.3603 10.8052 10.4602C10.6652 10.5602 10.5639 10.7052 10.5183 10.871C10.4726 11.0368 10.4854 11.2133 10.5544 11.3707C10.6235 11.5282 10.7447 11.6572 10.8976 11.7359C11.0505 11.8146 11.2258 11.8383 11.3941 11.803C11.5624 11.7677 11.7135 11.6756 11.8219 11.5421C11.9303 11.4086 11.9895 11.2419 11.9895 11.0699L21.1708 11.0699Z" stroke="url(#paint1_linear)" stroke-opacity="0.5" stroke-width="2" stroke-linecap="round" stroke-linejoin="round"/>
<g filter="url(#filter1_ii)">
<circle cx="11.2404" cy="11.0698" r="9.93036" fill="url(#paint2_linear)"/>
</g>
<circle cx="11.2404" cy="11.0698" r="9.93036" stroke="url(#paint3_linear)" stroke-opacity="0.5" stroke-width="2" stroke-linecap="round" stroke-linejoin="round"/>
<path d="M11.8619 4H10V11.597L16.5168 15.5854L17.4478 14.028L11.8619 10.6474V4Z" fill="#E3EDF7"/>
<defs>
<filter id="filter0_ii" x="-0.189947" y="-0.360491" width="22.8607" height="22.8608" filterUnits="userSpaceOnUse" color-interpolation-filters="sRGB">
<feFlood flood-opacity="0" result="BackgroundImageFix"/>
<feBlend mode="normal" in="SourceGraphic" in2="BackgroundImageFix" result="shape"/>
<feColorMatrix in="SourceAlpha" type="matrix" values="0 0 0 0 0 0 0 0 0 0 0 0 0 0 0 0 0 0 127 0" result="hardAlpha"/>
<feOffset dx="-0.5" dy="-0.5"/>
<feGaussianBlur stdDeviation="0.25"/>
<feComposite in2="hardAlpha" operator="arithmetic" k2="-1" k3="1"/>
<feColorMatrix type="matrix" values="0 0 0 0 1 0 0 0 0 1 0 0 0 0 1 0 0 0 0.4 0"/>
<feBlend mode="normal" in2="shape" result="effect1_innerShadow"/>
<feColorMatrix in="SourceAlpha" type="matrix" values="0 0 0 0 0 0 0 0 0 0 0 0 0 0 0 0 0 0 127 0" result="hardAlpha"/>
<feOffset dx="0.5" dy="0.5"/>
<feGaussianBlur stdDeviation="0.25"/>
<feComposite in2="hardAlpha" operator="arithmetic" k2="-1" k3="1"/>
<feColorMatrix type="matrix" values="0 0 0 0 0.127604 0 0 0 0 0.267969 0 0 0 0 0.408333 0 0 0 0.4 0"/>
<feBlend mode="normal" in2="effect1_innerShadow" result="effect2_innerShadow"/>
</filter>
<filter id="filter1_ii" x="-0.189941" y="-0.360596" width="22.8607" height="22.8607" filterUnits="userSpaceOnUse" color-interpolation-filters="sRGB">
<feFlood flood-opacity="0" result="BackgroundImageFix"/>
<feBlend mode="normal" in="SourceGraphic" in2="BackgroundImageFix" result="shape"/>
<feColorMatrix in="SourceAlpha" type="matrix" values="0 0 0 0 0 0 0 0 0 0 0 0 0 0 0 0 0 0 127 0" result="hardAlpha"/>
<feOffset dx="-0.5" dy="-0.5"/>
<feGaussianBlur stdDeviation="0.25"/>
<feComposite in2="hardAlpha" operator="arithmetic" k2="-1" k3="1"/>
<feColorMatrix type="matrix" values="0 0 0 0 1 0 0 0 0 1 0 0 0 0 1 0 0 0 0.4 0"/>
<feBlend mode="normal" in2="shape" result="effect1_innerShadow"/>
<feColorMatrix in="SourceAlpha" type="matrix" values="0 0 0 0 0 0 0 0 0 0 0 0 0 0 0 0 0 0 127 0" result="hardAlpha"/>
<feOffset dx="0.5" dy="0.5"/>
<feGaussianBlur stdDeviation="0.25"/>
<feComposite in2="hardAlpha" operator="arithmetic" k2="-1" k3="1"/>
<feColorMatrix type="matrix" values="0 0 0 0 0.127604 0 0 0 0 0.267969 0 0 0 0 0.408333 0 0 0 0.4 0"/>
<feBlend mode="normal" in2="effect1_innerShadow" result="effect2_innerShadow"/>
</filter>
<linearGradient id="paint0_linear" x1="0.896294" y1="-0.101777" x2="19.9295" y2="18.1039" gradientUnits="userSpaceOnUse">
<stop offset="0.28125" stop-color="#D3E8FF"/>
<stop offset="1" stop-color="#5F83AD"/>
</linearGradient>
<linearGradient id="paint1_linear" x1="21.1708" y1="2.62907" x2="-2.28233" y2="21.3921" gradientUnits="userSpaceOnUse">
<stop stop-color="#48647D"/>
<stop offset="0.234375" stop-color="#6B8299"/>
<stop offset="0.442708" stop-color="#DAE2EB"/>
<stop offset="0.682292" stop-color="#8CA2B7"/>
<stop offset="1" stop-color="#EDF2F7"/>
</linearGradient>
<linearGradient id="paint2_linear" x1="22.4121" y1="0.725639" x2="4.20641" y2="19.7588" gradientUnits="userSpaceOnUse">
<stop offset="0.28125" stop-color="#D3E8FF"/>
<stop offset="1" stop-color="#5F83AD"/>
</linearGradient>
<linearGradient id="paint3_linear" x1="19.6812" y1="21.0001" x2="0.918178" y2="-2.45299" gradientUnits="userSpaceOnUse">
<stop stop-color="#48647D"/>
<stop offset="0.234375" stop-color="#6B8299"/>
<stop offset="0.442708" stop-color="#DAE2EB"/>
<stop offset="0.682292" stop-color="#8CA2B7"/>
<stop offset="1" stop-color="#EDF2F7"/>
</linearGradient>
</defs>
</svg>
