<svg width="31" height="43" viewBox="0 0 31 43" fill="none" xmlns="http://www.w3.org/2000/svg">
<path d="M15.5 0.0549316L13.7433 1.8116C13.175 2.37993 0 15.7099 0 27.0249C0 35.5499 6.975 42.525 15.5 42.525C24.025 42.525 31 35.5499 31 27.0249C31 15.7616 17.825 2.37993 17.2567 1.8116L15.5 0.0549316ZM7.75 24.4416C9.19667 24.4416 10.3333 25.5783 10.3333 27.0249C10.3333 29.8666 12.6583 32.1916 15.5 32.1916C16.9467 32.1916 18.0833 33.3283 18.0833 34.7749C18.0833 36.2216 16.9467 37.3583 15.5 37.3583C9.81667 37.3583 5.16667 32.7083 5.16667 27.0249C5.16667 25.5783 6.30333 24.4416 7.75 24.4416Z" fill="#7686A1"/>
</svg>
