<svg version="1.1" id="layer1" 
	xmlns="http://www.w3.org/2000/svg" 
	xmlns:xlink="http://www.w3.org/1999/xlink" x="0px" y="0px" viewBox="0 0 24.1 24.1" style="enable-background:new 0 0 24.1 24.1;" xml:space="preserve">
	<defs>
		<filter id="filter0_ii" x="-0.50061" y="-0.5" width="23.0008" height="23" filterUnits="userSpaceOnUse" color-interpolation-filters="sRGB">
			<feFlood flood-opacity="0" result="BackgroundImageFix"/>
			<feBlend mode="normal" in="SourceGraphic" in2="BackgroundImageFix" result="shape"/>
			<feColorMatrix in="SourceAlpha" type="matrix" values="0 0 0 0 0 0 0 0 0 0 0 0 0 0 0 0 0 0 127 0" result="hardAlpha"/>
			<feOffset dx="-0.5" dy="-0.5"/>
			<feGaussianBlur stdDeviation="0.25"/>
			<feComposite in2="hardAlpha" operator="arithmetic" k2="-1" k3="1"/>
			<feColorMatrix type="matrix" values="0 0 0 0 1 0 0 0 0 1 0 0 0 0 1 0 0 0 0.4 0"/>
			<feBlend mode="normal" in2="shape" result="effect1_innerShadow"/>
			<feColorMatrix in="SourceAlpha" type="matrix" values="0 0 0 0 0 0 0 0 0 0 0 0 0 0 0 0 0 0 127 0" result="hardAlpha"/>
			<feOffset dx="0.5" dy="0.5"/>
			<feGaussianBlur stdDeviation="0.25"/>
			<feComposite in2="hardAlpha" operator="arithmetic" k2="-1" k3="1"/>
			<feColorMatrix type="matrix" values="0 0 0 0 0.127604 0 0 0 0 0.267969 0 0 0 0 0.408333 0 0 0 0.4 0"/>
			<feBlend mode="normal" in2="effect1_innerShadow" result="effect2_innerShadow"/>
		</filter>
		<style type="text/css">.st0{opacity:0.5;fill:none;stroke:url(#SVGID_1_);stroke-width:2;stroke-linecap:round;stroke-linejoin:round;enable-background:new;}</style>
		<linearGradient id="SVGID_1_" gradientUnits="userSpaceOnUse" x1="21.5335" y1="7.804801e-02" x2="-0.3365" y2="27.418" gradientTransform="matrix(1 0 0 -1 0 23.9842)">
			<stop offset="0" style="stop-color:#48657E"/>
			<stop offset="0.23" style="stop-color:#6B8299"/>
			<stop offset="0.44" style="stop-color:#DAE2EB"/>
			<stop offset="0.68" style="stop-color:#8CA2B7"/>
			<stop offset="1" style="stop-color:#EDF2F7"/>
		</linearGradient>
	</defs>

	<title>Config</title>
	<g id="layr" data-name="layr" filter="url(#filter0_ii)">
		<path class="st0" d="M18.2,4.3c0,1.2-1,2.2-2.2,2.2s-2.2-1-2.2-2.2s1-2.2,2.2-2.2c0,0,0,0,0,0C17.2,2,18.2,3,18.2,4.3C18.2,4.3,18.2,4.3,18.2,4.3z M18.2,4.3h3.3 M2.6,4.3h11.1 M2.6,12h3.3 M8.2,9.8c-1.2,0-2.2,1-2.2,2.2s1,2.2,2.2,2.2c1.2,0,2.2-1,2.2-2.2S9.4,9.8,8.2,9.8L8.2,9.8z M10.4,12h11.1 M2.6,19.8h7.8 M12.6,17.6c-1.2,0-2.2,1-2.2,2.2s1,2.2,2.2,2.2s2.2-1,2.2-2.2l0,0C14.8,18.6,13.8,17.6,12.6,17.6C12.6,17.6,12.6,17.6,12.6,17.6z M14.8,19.8h6.7"/>
	</g>
</svg>
